<mxfile host="app.diagrams.net" agent="Mozilla/5.0 (Windows NT 10.0; Win64; x64) AppleWebKit/537.36 (KHTML, like Gecko) Chrome/137.0.0.0 Safari/537.36" version="27.1.6">
  <diagram name="Страница — 1" id="mGW0HguZxzV9_WUO_xMd">
    <mxGraphModel dx="1426" dy="785" grid="1" gridSize="10" guides="1" tooltips="1" connect="1" arrows="1" fold="1" page="1" pageScale="1" pageWidth="827" pageHeight="1169" math="0" shadow="0">
      <root>
        <mxCell id="0" />
        <mxCell id="1" parent="0" />
        <mxCell id="4yrnK2TZLZaJWwU7wquU-1" value="" style="shape=table;startSize=0;container=1;collapsible=0;childLayout=tableLayout;fontStyle=1;fontSize=12;fontFamily=Times New Roman;" vertex="1" parent="1">
          <mxGeometry x="90" y="210" width="1180" height="1270" as="geometry" />
        </mxCell>
        <mxCell id="4yrnK2TZLZaJWwU7wquU-2" value="" style="shape=tableRow;horizontal=0;startSize=0;swimlaneHead=0;swimlaneBody=0;strokeColor=inherit;top=0;left=0;bottom=0;right=0;collapsible=0;dropTarget=0;fillColor=none;points=[[0,0.5],[1,0.5]];portConstraint=eastwest;fontStyle=1;fontSize=12;fontFamily=Times New Roman;" vertex="1" parent="4yrnK2TZLZaJWwU7wquU-1">
          <mxGeometry width="1180" height="40" as="geometry" />
        </mxCell>
        <mxCell id="4yrnK2TZLZaJWwU7wquU-3" value="" style="shape=partialRectangle;html=1;whiteSpace=wrap;connectable=0;strokeColor=inherit;overflow=hidden;fillColor=none;top=0;left=0;bottom=0;right=0;pointerEvents=1;fontStyle=1;fontSize=12;fontFamily=Times New Roman;" vertex="1" parent="4yrnK2TZLZaJWwU7wquU-2">
          <mxGeometry width="60" height="40" as="geometry">
            <mxRectangle width="60" height="40" as="alternateBounds" />
          </mxGeometry>
        </mxCell>
        <mxCell id="4yrnK2TZLZaJWwU7wquU-4" value="&lt;span&gt;&lt;span style=&quot;&quot;&gt;Jun&lt;br&gt;+ Middle-&lt;/span&gt;&lt;/span&gt;" style="shape=partialRectangle;html=1;whiteSpace=wrap;connectable=0;strokeColor=inherit;overflow=hidden;fillColor=none;top=0;left=0;bottom=0;right=0;pointerEvents=1;fontStyle=1;fontSize=12;fontFamily=Times New Roman;" vertex="1" parent="4yrnK2TZLZaJWwU7wquU-2">
          <mxGeometry x="60" width="240" height="40" as="geometry">
            <mxRectangle width="240" height="40" as="alternateBounds" />
          </mxGeometry>
        </mxCell>
        <mxCell id="4yrnK2TZLZaJWwU7wquU-5" value="&lt;span&gt;&lt;span style=&quot;&quot;&gt;Middle+&lt;/span&gt;&lt;/span&gt;" style="shape=partialRectangle;html=1;whiteSpace=wrap;connectable=0;strokeColor=inherit;overflow=hidden;fillColor=none;top=0;left=0;bottom=0;right=0;pointerEvents=1;fontStyle=1;fontSize=12;fontFamily=Times New Roman;" vertex="1" parent="4yrnK2TZLZaJWwU7wquU-2">
          <mxGeometry x="300" width="260" height="40" as="geometry">
            <mxRectangle width="260" height="40" as="alternateBounds" />
          </mxGeometry>
        </mxCell>
        <mxCell id="4yrnK2TZLZaJWwU7wquU-6" value="&lt;span&gt;&lt;span style=&quot;&quot;&gt;Senior&lt;/span&gt;&lt;/span&gt;" style="shape=partialRectangle;html=1;whiteSpace=wrap;connectable=0;strokeColor=inherit;overflow=hidden;fillColor=none;top=0;left=0;bottom=0;right=0;pointerEvents=1;fontStyle=1;fontSize=12;fontFamily=Times New Roman;" vertex="1" parent="4yrnK2TZLZaJWwU7wquU-2">
          <mxGeometry x="560" width="310" height="40" as="geometry">
            <mxRectangle width="310" height="40" as="alternateBounds" />
          </mxGeometry>
        </mxCell>
        <mxCell id="4yrnK2TZLZaJWwU7wquU-7" value="&lt;span&gt;&lt;span style=&quot;&quot;&gt;Lead&lt;/span&gt;&lt;/span&gt;" style="shape=partialRectangle;html=1;whiteSpace=wrap;connectable=0;strokeColor=inherit;overflow=hidden;fillColor=none;top=0;left=0;bottom=0;right=0;pointerEvents=1;fontStyle=1;fontSize=12;fontFamily=Times New Roman;" vertex="1" parent="4yrnK2TZLZaJWwU7wquU-2">
          <mxGeometry x="870" width="310" height="40" as="geometry">
            <mxRectangle width="310" height="40" as="alternateBounds" />
          </mxGeometry>
        </mxCell>
        <mxCell id="4yrnK2TZLZaJWwU7wquU-8" value="" style="shape=tableRow;horizontal=0;startSize=0;swimlaneHead=0;swimlaneBody=0;strokeColor=inherit;top=0;left=0;bottom=0;right=0;collapsible=0;dropTarget=0;fillColor=none;points=[[0,0.5],[1,0.5]];portConstraint=eastwest;fontStyle=1;fontSize=12;fontFamily=Times New Roman;" vertex="1" parent="4yrnK2TZLZaJWwU7wquU-1">
          <mxGeometry y="40" width="1180" height="470" as="geometry" />
        </mxCell>
        <mxCell id="4yrnK2TZLZaJWwU7wquU-9" value="&lt;span&gt;&lt;span style=&quot;&quot;&gt;Софты&lt;/span&gt;&lt;/span&gt;" style="shape=partialRectangle;html=1;whiteSpace=wrap;connectable=0;strokeColor=inherit;overflow=hidden;fillColor=none;top=0;left=0;bottom=0;right=0;pointerEvents=1;fontStyle=1;fontSize=12;fontFamily=Times New Roman;" vertex="1" parent="4yrnK2TZLZaJWwU7wquU-8">
          <mxGeometry width="60" height="470" as="geometry">
            <mxRectangle width="60" height="470" as="alternateBounds" />
          </mxGeometry>
        </mxCell>
        <mxCell id="4yrnK2TZLZaJWwU7wquU-10" value="&lt;p class=&quot;MsoNormal&quot;&gt;&lt;span&gt;&lt;span style=&quot;&quot;&gt;- Желание&amp;nbsp;учиться которое подтверждается делом. (Что изучено за последний год? Как это&amp;nbsp;применяется?)&lt;/span&gt;&lt;/span&gt;&lt;span style=&quot;&quot;&gt;&lt;/span&gt;&lt;/p&gt;&lt;p class=&quot;MsoNormal&quot;&gt;&lt;span style=&quot;background-color: transparent; color: light-dark(rgb(0, 0, 0), rgb(255, 255, 255));&quot;&gt;- Проактивная&amp;nbsp;&lt;/span&gt;&lt;span style=&quot;background-color: transparent; color: light-dark(rgb(0, 0, 0), rgb(255, 255, 255));&quot;&gt;работа с заказчиком. (Инициатива по вопросам/запросу ОС должна поступать от&amp;nbsp;&lt;/span&gt;&lt;span style=&quot;background-color: transparent; color: light-dark(rgb(0, 0, 0), rgb(255, 255, 255));&quot;&gt;специалиста)&lt;/span&gt;&lt;/p&gt;&lt;p class=&quot;MsoNormal&quot;&gt;&lt;span style=&quot;background-color: transparent; color: light-dark(rgb(0, 0, 0), rgb(255, 255, 255));&quot;&gt;- Умение&amp;nbsp;&lt;/span&gt;&lt;span style=&quot;background-color: transparent; color: light-dark(rgb(0, 0, 0), rgb(255, 255, 255));&quot;&gt;принимать ОС по своей работе&lt;/span&gt;&lt;/p&gt;&lt;p class=&quot;MsoNormal&quot;&gt;&lt;span style=&quot;background-color: transparent; color: light-dark(rgb(0, 0, 0), rgb(255, 255, 255));&quot;&gt;-&amp;nbsp;Многозадачность (определение ниже - под таблицей)&lt;/span&gt;&lt;/p&gt;" style="shape=partialRectangle;html=1;whiteSpace=wrap;connectable=0;strokeColor=inherit;overflow=hidden;fillColor=none;top=0;left=0;bottom=0;right=0;pointerEvents=1;fontStyle=1;fontSize=12;fontFamily=Times New Roman;" vertex="1" parent="4yrnK2TZLZaJWwU7wquU-8">
          <mxGeometry x="60" width="240" height="470" as="geometry">
            <mxRectangle width="240" height="470" as="alternateBounds" />
          </mxGeometry>
        </mxCell>
        <mxCell id="4yrnK2TZLZaJWwU7wquU-11" value="&lt;p class=&quot;MsoNormal&quot;&gt;&lt;span&gt;&lt;span style=&quot;&quot;&gt;- Желание&lt;br&gt;учиться которое подтверждается делом. (Что изучено за последний год? Как это&lt;br&gt;применяется?)&lt;/span&gt;&lt;/span&gt;&lt;span style=&quot;&quot;&gt;&lt;/span&gt;&lt;/p&gt;&lt;p class=&quot;MsoNormal&quot;&gt;&lt;span&gt;&lt;span style=&quot;&quot;&gt;- Проактивная&lt;br&gt;работа с заказчиком. (Инициатива по вопросам/запросу ОС должна поступать от&amp;nbsp;специалиста)&lt;/span&gt;&lt;/span&gt;&lt;span style=&quot;&quot;&gt;&lt;/span&gt;&lt;/p&gt;&lt;p class=&quot;MsoNormal&quot;&gt;&lt;span&gt;&lt;span style=&quot;&quot;&gt;- Умение&amp;nbsp;принимать ОС по своей работе&lt;/span&gt;&lt;/span&gt;&lt;span style=&quot;&quot;&gt;&lt;/span&gt;&lt;/p&gt;&lt;p class=&quot;MsoNormal&quot;&gt;&lt;span&gt;&lt;span style=&quot;&quot;&gt;-&amp;nbsp;Многозадачность (определение&amp;nbsp; &amp;nbsp; &amp;nbsp; ниже - под таблицей)&lt;/span&gt;&lt;/span&gt;&lt;span style=&quot;&quot;&gt;&lt;/span&gt;&lt;/p&gt;&lt;p class=&quot;MsoNormal&quot;&gt;&lt;span&gt;&lt;span style=&quot;&quot;&gt;- Умение&lt;br&gt;доносить свои мысли до коллег&lt;/span&gt;&lt;/span&gt;&lt;span style=&quot;&quot;&gt;&lt;/span&gt;&lt;/p&gt;&lt;p class=&quot;MsoNormal&quot;&gt;&lt;span&gt;&lt;span style=&quot;&quot;&gt;-&amp;nbsp; Умение&lt;br&gt;объяснить заказчику возможные варианты реализации&lt;/span&gt;&lt;/span&gt;&lt;span style=&quot;&quot;&gt;&lt;/span&gt;&lt;/p&gt;&lt;span&gt;&lt;span style=&quot;&quot;&gt;-&amp;nbsp; Умение выявить у себя недостаток знаний в определенном домене и закрыть его при&lt;br&gt;необходимости&lt;/span&gt;&lt;/span&gt;" style="shape=partialRectangle;html=1;whiteSpace=wrap;connectable=0;strokeColor=inherit;overflow=hidden;fillColor=none;top=0;left=0;bottom=0;right=0;pointerEvents=1;fontStyle=1;fontSize=12;fontFamily=Times New Roman;" vertex="1" parent="4yrnK2TZLZaJWwU7wquU-8">
          <mxGeometry x="300" width="260" height="470" as="geometry">
            <mxRectangle width="260" height="470" as="alternateBounds" />
          </mxGeometry>
        </mxCell>
        <mxCell id="4yrnK2TZLZaJWwU7wquU-12" value="&lt;p class=&quot;MsoNormal&quot;&gt;- Желание&lt;br&gt;учиться которое подтверждается делом. (Что изучено за последний год? Как это применяется?)&lt;/p&gt;&lt;p class=&quot;MsoNormal&quot;&gt;&lt;span style=&quot;background-color: transparent; color: light-dark(rgb(0, 0, 0), rgb(255, 255, 255));&quot;&gt;-&amp;nbsp;Проактивная работа с заказчиком. (Инициатива по вопросам/запросу ОС должна&amp;nbsp;поступать от специалиста)&lt;/span&gt;&lt;/p&gt;&lt;p class=&quot;MsoNormal&quot;&gt;- Умение&amp;nbsp;принимать ОС по своей работе&lt;/p&gt;&lt;p class=&quot;MsoNormal&quot;&gt;-&amp;nbsp;Многозадачность (определение ниже - под таблицей)&lt;/p&gt;&lt;p class=&quot;MsoNormal&quot;&gt;- Умение&lt;br&gt;доносить свои мысли до коллег&lt;/p&gt;&lt;p class=&quot;MsoNormal&quot;&gt;-&amp;nbsp;&amp;nbsp;Умение объяснить заказчику возможные варианты реализации&lt;/p&gt;&lt;p class=&quot;MsoNormal&quot;&gt;- Понимание&amp;nbsp;как работа влияет на проект в целом: что нужно сделать в первом приоритете,&amp;nbsp;что можно поставить на паузу, чего можно не делать вообще&lt;/p&gt;&lt;p class=&quot;MsoNormal&quot;&gt;- Умение&amp;nbsp;сглаживать напряжение внутри команды, умение объяснить команде, что могут&amp;nbsp;быть задачи интересные, но не полезные для проекта&lt;/p&gt;" style="shape=partialRectangle;html=1;whiteSpace=wrap;connectable=0;strokeColor=inherit;overflow=hidden;fillColor=none;top=0;left=0;bottom=0;right=0;pointerEvents=1;fontStyle=1;fontSize=12;fontFamily=Times New Roman;" vertex="1" parent="4yrnK2TZLZaJWwU7wquU-8">
          <mxGeometry x="560" width="310" height="470" as="geometry">
            <mxRectangle width="310" height="470" as="alternateBounds" />
          </mxGeometry>
        </mxCell>
        <mxCell id="4yrnK2TZLZaJWwU7wquU-13" value="&lt;p class=&quot;MsoNormal&quot;&gt;- Желание&amp;nbsp;учиться которое подтверждается делом. (Что изучено за последний год? Как это&amp;nbsp;применяется?)&lt;/p&gt;&lt;p class=&quot;MsoNormal&quot;&gt;-&amp;nbsp;Проактивная работа с заказчиком. (Инициатива по вопросам/запросу ОС должна&amp;nbsp;поступать от специалиста)&lt;/p&gt;&lt;p class=&quot;MsoNormal&quot;&gt;- Умение&amp;nbsp;принимать ОС по своей работе&lt;/p&gt;&lt;p class=&quot;MsoNormal&quot;&gt;-&amp;nbsp;Многозадачность (определение ниже - под таблицей)&lt;/p&gt;&lt;p class=&quot;MsoNormal&quot;&gt;- Умение&amp;nbsp;доносить свои мысли до коллег&lt;/p&gt;&lt;p class=&quot;MsoNormal&quot;&gt;-&amp;nbsp;&amp;nbsp;Умение объяснить заказчику возможные варианты реализации&lt;/p&gt;&lt;p class=&quot;MsoNormal&quot;&gt;- Понимание&amp;nbsp;как работа влияет на проект в целом: что нужно сделать в первом приоритете,&amp;nbsp;что можно поставить на паузу, чего можно не делать вообще&lt;/p&gt;&lt;p class=&quot;MsoNormal&quot;&gt;- Умение&amp;nbsp;сглаживать напряжение внутри команды, умение объяснить команде, что могут&amp;nbsp;быть задачи интересные, но не полезные для проекта&lt;/p&gt;&lt;p class=&quot;MsoNormal&quot;&gt;-&amp;nbsp;Наставничество над коллегами из своей компетенции с понятным результатом -&amp;nbsp;приобретением ими желаемых скиллов&lt;/p&gt;&lt;p class=&quot;MsoNormal&quot;&gt;- Умение&amp;nbsp;давать “ученикам” нетравматичную ОС&lt;/p&gt;&lt;p class=&quot;MsoNormal&quot;&gt;- Умение&amp;nbsp;проведения встреч one-2-one&lt;/p&gt;&lt;div&gt;&lt;br&gt;&lt;/div&gt;" style="shape=partialRectangle;html=1;whiteSpace=wrap;connectable=0;strokeColor=inherit;overflow=hidden;fillColor=none;top=0;left=0;bottom=0;right=0;pointerEvents=1;fontStyle=1;fontSize=12;fontFamily=Times New Roman;" vertex="1" parent="4yrnK2TZLZaJWwU7wquU-8">
          <mxGeometry x="870" width="310" height="470" as="geometry">
            <mxRectangle width="310" height="470" as="alternateBounds" />
          </mxGeometry>
        </mxCell>
        <mxCell id="4yrnK2TZLZaJWwU7wquU-14" value="" style="shape=tableRow;horizontal=0;startSize=0;swimlaneHead=0;swimlaneBody=0;strokeColor=inherit;top=0;left=0;bottom=0;right=0;collapsible=0;dropTarget=0;fillColor=none;points=[[0,0.5],[1,0.5]];portConstraint=eastwest;fontStyle=1;fontSize=12;fontFamily=Times New Roman;" vertex="1" parent="4yrnK2TZLZaJWwU7wquU-1">
          <mxGeometry y="510" width="1180" height="760" as="geometry" />
        </mxCell>
        <mxCell id="4yrnK2TZLZaJWwU7wquU-15" value="&lt;span&gt;&lt;span style=&quot;&quot;&gt;Харды&lt;/span&gt;&lt;/span&gt;" style="shape=partialRectangle;html=1;whiteSpace=wrap;connectable=0;strokeColor=inherit;overflow=hidden;fillColor=none;top=0;left=0;bottom=0;right=0;pointerEvents=1;fontStyle=1;fontSize=12;fontFamily=Times New Roman;" vertex="1" parent="4yrnK2TZLZaJWwU7wquU-14">
          <mxGeometry width="60" height="760" as="geometry">
            <mxRectangle width="60" height="760" as="alternateBounds" />
          </mxGeometry>
        </mxCell>
        <mxCell id="4yrnK2TZLZaJWwU7wquU-16" value="&lt;p class=&quot;MsoNormal&quot;&gt;- Умение&amp;nbsp;использовать&amp;nbsp;User Story&lt;/p&gt;&lt;p class=&quot;MsoNormal&quot;&gt;- Умение&amp;nbsp;&lt;span style=&quot;background-color: transparent; color: light-dark(rgb(0, 0, 0), rgb(255, 255, 255));&quot;&gt;использовать Use Case&lt;/span&gt;&lt;/p&gt;&lt;p class=&quot;MsoNormal&quot;&gt;- Знание&amp;nbsp;json нотации&lt;/p&gt;&lt;p class=&quot;MsoNormal&quot;&gt;- Знание&amp;nbsp;Postman и Curl&lt;/p&gt;&lt;p class=&quot;MsoNormal&quot;&gt;- Понимание&amp;nbsp;клиент-серверного взаимодействия&lt;/p&gt;&lt;p class=&quot;MsoNormal&quot;&gt;- Умение&amp;nbsp;прототипировать клиентские пути (например draw.io )&lt;/p&gt;&lt;p class=&quot;MsoNormal&quot;&gt;- Построение&amp;nbsp;сиквенс диаграмм в UML нотации&lt;/p&gt;&lt;p class=&quot;MsoNormal&quot;&gt;- Умение&amp;nbsp;работать с openAPI нотацией&lt;/p&gt;" style="shape=partialRectangle;html=1;whiteSpace=wrap;connectable=0;strokeColor=inherit;overflow=hidden;fillColor=none;top=0;left=0;bottom=0;right=0;pointerEvents=1;fontStyle=1;fontSize=12;fontFamily=Times New Roman;" vertex="1" parent="4yrnK2TZLZaJWwU7wquU-14">
          <mxGeometry x="60" width="240" height="760" as="geometry">
            <mxRectangle width="240" height="760" as="alternateBounds" />
          </mxGeometry>
        </mxCell>
        <mxCell id="4yrnK2TZLZaJWwU7wquU-17" value="&lt;p class=&quot;MsoNormal&quot;&gt;&lt;span&gt;&lt;span style=&quot;&quot;&gt;- Умение&amp;nbsp;использовать&lt;/span&gt;&lt;/span&gt;&lt;span style=&quot;&quot;&gt; &lt;span&gt;User Story&lt;/span&gt;&lt;/span&gt;&lt;/p&gt;&lt;p class=&quot;MsoNormal&quot;&gt;&lt;span&gt;&lt;span style=&quot;&quot;&gt;- Умение&amp;nbsp;использовать Use Case&lt;/span&gt;&lt;/span&gt;&lt;span style=&quot;&quot;&gt;&lt;/span&gt;&lt;/p&gt;&lt;p class=&quot;MsoNormal&quot;&gt;&lt;span&gt;&lt;span style=&quot;&quot;&gt;- Знание json&amp;nbsp;нотации&lt;/span&gt;&lt;/span&gt;&lt;span style=&quot;&quot;&gt;&lt;/span&gt;&lt;/p&gt;&lt;p class=&quot;MsoNormal&quot;&gt;&lt;span&gt;&lt;span style=&quot;&quot;&gt;- Знание&amp;nbsp;Postman и Curl&lt;/span&gt;&lt;/span&gt;&lt;span style=&quot;&quot;&gt;&lt;/span&gt;&lt;/p&gt;&lt;p class=&quot;MsoNormal&quot;&gt;&lt;span&gt;&lt;span style=&quot;&quot;&gt;- Понимание&amp;nbsp;клиент-серверного взаимодействия&lt;/span&gt;&lt;/span&gt;&lt;span style=&quot;&quot;&gt;&lt;/span&gt;&lt;/p&gt;&lt;p class=&quot;MsoNormal&quot;&gt;&lt;span&gt;&lt;span style=&quot;&quot;&gt;- Умение&amp;nbsp;прототипировать клиентские пути (например draw.io )&lt;/span&gt;&lt;/span&gt;&lt;span style=&quot;&quot;&gt;&lt;/span&gt;&lt;/p&gt;&lt;p class=&quot;MsoNormal&quot;&gt;&lt;span&gt;&lt;span style=&quot;&quot;&gt;- Построение&amp;nbsp;сиквенс диаграмм в UML нотации&lt;/span&gt;&lt;/span&gt;&lt;span style=&quot;&quot;&gt;&lt;/span&gt;&lt;/p&gt;&lt;p class=&quot;MsoNormal&quot;&gt;&lt;span&gt;&lt;span style=&quot;&quot;&gt;- Умение&amp;nbsp;работать с openAPI нотацией&lt;/span&gt;&lt;/span&gt;&lt;span style=&quot;&quot;&gt;&lt;/span&gt;&lt;/p&gt;&lt;p class=&quot;MsoNormal&quot;&gt;&lt;span&gt;&lt;span style=&quot;&quot;&gt;- Понимание и&amp;nbsp;умение проектировать синхронное и асинхронное взаимодействия&lt;/span&gt;&lt;/span&gt;&lt;span style=&quot;&quot;&gt;&lt;/span&gt;&lt;/p&gt;&lt;p class=&quot;MsoNormal&quot;&gt;&lt;span&gt;&lt;span style=&quot;&quot;&gt;- Опыт работы&amp;nbsp;с очередями (Rabbit, Kafka)&lt;/span&gt;&lt;/span&gt;&lt;span style=&quot;&quot;&gt;&lt;/span&gt;&lt;/p&gt;&lt;p class=&quot;MsoNormal&quot;&gt;&lt;span&gt;&lt;span style=&quot;&quot;&gt;- Понимание&amp;nbsp;плюсов и минусов микросервисов и монолита&lt;/span&gt;&lt;/span&gt;&lt;span style=&quot;font-family:&amp;lt;br/&amp;gt;&amp;quot;Times New Roman&amp;quot;,serif;mso-fareast-font-family:&amp;quot;Times New Roman&amp;quot;;mso-font-kerning:&amp;lt;br/&amp;gt;0pt;mso-ligatures:none;mso-fareast-language:RU&quot;&gt;&lt;/span&gt;&lt;/p&gt;&lt;p class=&quot;MsoNormal&quot;&gt;&lt;span&gt;&lt;span style=&quot;&quot;&gt;- Понимание&amp;nbsp;подхода API first&lt;/span&gt;&lt;/span&gt;&lt;span style=&quot;&quot;&gt;&lt;/span&gt;&lt;/p&gt;&lt;p class=&quot;MsoNormal&quot;&gt;&lt;span&gt;&lt;span style=&quot;&quot;&gt;- Опыт работы&amp;nbsp;с Charles (перехват и анализ клиент-серверных запросов)&lt;/span&gt;&lt;/span&gt;&lt;span style=&quot;&quot;&gt;&lt;/span&gt;&lt;/p&gt;&lt;p class=&quot;MsoNormal&quot;&gt;&lt;span&gt;&lt;span style=&quot;&quot;&gt;- Опыт работы&amp;nbsp;с БД: реляционными, нереляционными, векторными - понимание разницы между ними,&lt;br&gt;умение писать простые запросы&lt;/span&gt;&lt;/span&gt;&lt;span style=&quot;&quot;&gt;&lt;/span&gt;&lt;/p&gt;&lt;p class=&quot;MsoNormal&quot;&gt;&lt;span&gt;&lt;span style=&quot;&quot;&gt;- Умение&amp;nbsp;программировать на python (junior уровень)&lt;/span&gt;&lt;/span&gt;&lt;span style=&quot;font-family:&amp;lt;br/&amp;gt;&amp;quot;Times New Roman&amp;quot;,serif;mso-fareast-font-family:&amp;quot;Times New Roman&amp;quot;;mso-font-kerning:&amp;lt;br/&amp;gt;0pt;mso-ligatures:none;mso-fareast-language:RU&quot;&gt;&lt;/span&gt;&lt;/p&gt;&lt;p class=&quot;MsoNormal&quot;&gt;&lt;span&gt;&lt;span style=&quot;&quot;&gt;- Понимание&amp;nbsp;принципов работы LLM&lt;/span&gt;&lt;/span&gt;&lt;span style=&quot;&quot;&gt;&lt;/span&gt;&lt;/p&gt;&lt;p class=&quot;MsoNormal&quot;&gt;&lt;span&gt;&lt;span style=&quot;&quot;&gt;- Умение&amp;nbsp;базового промтинга LLM&lt;/span&gt;&lt;/span&gt;&lt;span style=&quot;&quot;&gt;&lt;/span&gt;&lt;/p&gt;&lt;span&gt;&lt;span style=&quot;&quot;&gt;- Понимание RAG&lt;/span&gt;&lt;/span&gt;" style="shape=partialRectangle;html=1;whiteSpace=wrap;connectable=0;strokeColor=inherit;overflow=hidden;fillColor=none;top=0;left=0;bottom=0;right=0;pointerEvents=1;fontStyle=1;fontSize=12;fontFamily=Times New Roman;" vertex="1" parent="4yrnK2TZLZaJWwU7wquU-14">
          <mxGeometry x="300" width="260" height="760" as="geometry">
            <mxRectangle width="260" height="760" as="alternateBounds" />
          </mxGeometry>
        </mxCell>
        <mxCell id="4yrnK2TZLZaJWwU7wquU-18" value="&lt;p class=&quot;MsoNormal&quot;&gt;&lt;span style=&quot;&quot;&gt;(Харды сеньора&amp;nbsp;и лида не отличаются)&lt;br&gt;&lt;br&gt;&lt;span&gt;- Умение использовать&lt;/span&gt; &lt;span&gt;User Story&lt;/span&gt;&lt;/span&gt;&lt;/p&gt;&lt;p class=&quot;MsoNormal&quot;&gt;&lt;span&gt;&lt;span style=&quot;&quot;&gt;- Умение&amp;nbsp;использовать Use Case&lt;/span&gt;&lt;/span&gt;&lt;span style=&quot;&quot;&gt;&lt;/span&gt;&lt;/p&gt;&lt;p class=&quot;MsoNormal&quot;&gt;&lt;span&gt;&lt;span style=&quot;&quot;&gt;- Знание json&amp;nbsp;нотации&lt;/span&gt;&lt;/span&gt;&lt;span style=&quot;&quot;&gt;&lt;/span&gt;&lt;/p&gt;&lt;p class=&quot;MsoNormal&quot;&gt;&lt;span&gt;&lt;span style=&quot;&quot;&gt;- Знание&amp;nbsp;Postman и Curl&lt;/span&gt;&lt;/span&gt;&lt;span style=&quot;&quot;&gt;&lt;/span&gt;&lt;/p&gt;&lt;p class=&quot;MsoNormal&quot;&gt;&lt;span&gt;&lt;span style=&quot;&quot;&gt;- Понимание&amp;nbsp;клиент-серверного взаимодействия&lt;/span&gt;&lt;/span&gt;&lt;span style=&quot;&quot;&gt;&lt;/span&gt;&lt;/p&gt;&lt;p class=&quot;MsoNormal&quot;&gt;&lt;span&gt;&lt;span style=&quot;&quot;&gt;- Умение&amp;nbsp;прототипировать клиентские пути (например draw.io)&lt;/span&gt;&lt;/span&gt;&lt;span style=&quot;&quot;&gt;&lt;/span&gt;&lt;/p&gt;&lt;p class=&quot;MsoNormal&quot;&gt;&lt;span&gt;&lt;span style=&quot;&quot;&gt;- Построение&amp;nbsp;сиквенс диаграмм в UML нотации&lt;/span&gt;&lt;/span&gt;&lt;span style=&quot;&quot;&gt;&lt;/span&gt;&lt;/p&gt;&lt;p class=&quot;MsoNormal&quot;&gt;&lt;span&gt;&lt;span style=&quot;&quot;&gt;- Умение&amp;nbsp;работать с openAPI нотацией&lt;/span&gt;&lt;/span&gt;&lt;span style=&quot;&quot;&gt;&lt;/span&gt;&lt;/p&gt;&lt;p class=&quot;MsoNormal&quot;&gt;&lt;span&gt;&lt;span style=&quot;&quot;&gt;- Понимание и&amp;nbsp;умение проектировать синхронное и асинхронное взаимодействия&lt;/span&gt;&lt;/span&gt;&lt;span style=&quot;&quot;&gt;&lt;/span&gt;&lt;/p&gt;&lt;p class=&quot;MsoNormal&quot;&gt;&lt;span&gt;&lt;span style=&quot;&quot;&gt;- Опыт работы&amp;nbsp;с очередями (Rabbit, Kafka)&lt;/span&gt;&lt;/span&gt;&lt;span style=&quot;&quot;&gt;&lt;/span&gt;&lt;/p&gt;&lt;p class=&quot;MsoNormal&quot;&gt;&lt;span&gt;&lt;span style=&quot;&quot;&gt;- Понимание&amp;nbsp;плюсов и минусов микросервисов и монолита&lt;/span&gt;&lt;/span&gt;&lt;span style=&quot;font-family:&amp;lt;br/&amp;gt;&amp;quot;Times New Roman&amp;quot;,serif;mso-fareast-font-family:&amp;quot;Times New Roman&amp;quot;;mso-font-kerning:&amp;lt;br/&amp;gt;0pt;mso-ligatures:none;mso-fareast-language:RU&quot;&gt;&lt;/span&gt;&lt;/p&gt;&lt;p class=&quot;MsoNormal&quot;&gt;&lt;span&gt;&lt;span style=&quot;&quot;&gt;- Понимание&amp;nbsp;подхода API first&lt;/span&gt;&lt;/span&gt;&lt;span style=&quot;&quot;&gt;&lt;/span&gt;&lt;/p&gt;&lt;p class=&quot;MsoNormal&quot;&gt;&lt;span&gt;&lt;span style=&quot;&quot;&gt;- Опыт работы&amp;nbsp;с Charles (перехват и анализ клиент-серверных запросов)&lt;/span&gt;&lt;/span&gt;&lt;span style=&quot;&quot;&gt;&lt;/span&gt;&lt;/p&gt;&lt;p class=&quot;MsoNormal&quot;&gt;&lt;span&gt;&lt;span style=&quot;&quot;&gt;- Опыт работы&amp;nbsp;с БД: реляционными, нереляционными, векторными - понимание разницы между ними,&amp;nbsp;умение писать простые запросы&lt;/span&gt;&lt;/span&gt;&lt;span style=&quot;&quot;&gt;&lt;/span&gt;&lt;/p&gt;&lt;p class=&quot;MsoNormal&quot;&gt;&lt;span&gt;&lt;span style=&quot;&quot;&gt;- Умение&amp;nbsp;программировать на python (junior уровень)&lt;/span&gt;&lt;/span&gt;&lt;span style=&quot;font-family:&amp;lt;br/&amp;gt;&amp;quot;Times New Roman&amp;quot;,serif;mso-fareast-font-family:&amp;quot;Times New Roman&amp;quot;;mso-font-kerning:&amp;lt;br/&amp;gt;0pt;mso-ligatures:none;mso-fareast-language:RU&quot;&gt;&lt;/span&gt;&lt;/p&gt;&lt;p class=&quot;MsoNormal&quot;&gt;&lt;span&gt;&lt;span style=&quot;&quot;&gt;- Понимание&amp;nbsp;принципов работы LLM&lt;/span&gt;&lt;/span&gt;&lt;span style=&quot;&quot;&gt;&lt;/span&gt;&lt;/p&gt;&lt;p class=&quot;MsoNormal&quot;&gt;&lt;span&gt;&lt;span style=&quot;&quot;&gt;- Умение&amp;nbsp;базового промтинга LLM&lt;/span&gt;&lt;/span&gt;&lt;span style=&quot;&quot;&gt;&lt;/span&gt;&lt;/p&gt;&lt;p class=&quot;MsoNormal&quot;&gt;&lt;span&gt;&lt;span style=&quot;&quot;&gt;- Понимание&amp;nbsp;RAG&lt;/span&gt;&lt;/span&gt;&lt;span style=&quot;&quot;&gt;&lt;/span&gt;&lt;/p&gt;&lt;p class=&quot;MsoNormal&quot;&gt;&lt;span&gt;&lt;span style=&quot;&quot;&gt;- Умение&amp;nbsp;построить (возможно с командой) и понимать архитектуру проекта, понимать, что&amp;nbsp;можно легко доработать, а что потребует серьезного изменения скоупа проекта&lt;/span&gt;&lt;/span&gt;&lt;span style=&quot;&quot;&gt;&lt;/span&gt;&lt;/p&gt;&lt;p class=&quot;MsoNormal&quot;&gt;&lt;span&gt;&lt;span style=&quot;&quot;&gt;- Понимание&amp;nbsp;взаимодействия сервисов между собой (REST, очереди, service mesh)&lt;/span&gt;&lt;/span&gt;&lt;span style=&quot;&quot;&gt;&lt;/span&gt;&lt;/p&gt;&lt;span&gt;&lt;span style=&quot;&quot;&gt;-&amp;nbsp;Понимание принципов DevOps (docker, kubernetes)&lt;/span&gt;&lt;/span&gt;" style="shape=partialRectangle;html=1;whiteSpace=wrap;connectable=0;strokeColor=inherit;overflow=hidden;fillColor=none;top=0;left=0;bottom=0;right=0;pointerEvents=1;fontStyle=1;fontSize=12;fontFamily=Times New Roman;" vertex="1" parent="4yrnK2TZLZaJWwU7wquU-14">
          <mxGeometry x="560" width="310" height="760" as="geometry">
            <mxRectangle width="310" height="760" as="alternateBounds" />
          </mxGeometry>
        </mxCell>
        <mxCell id="4yrnK2TZLZaJWwU7wquU-19" value="&lt;p class=&quot;MsoNormal&quot;&gt;(Харды сеньора&amp;nbsp;и лида не отличаются)&lt;br&gt;&lt;br&gt;- Умение использовать&amp;nbsp;User Story&lt;/p&gt;&lt;p class=&quot;MsoNormal&quot;&gt;- Умение&amp;nbsp;использовать Use Case&lt;/p&gt;&lt;p class=&quot;MsoNormal&quot;&gt;- Знание json&amp;nbsp;нотации&lt;/p&gt;&lt;p class=&quot;MsoNormal&quot;&gt;- Знание&amp;nbsp;Postman и Curl&lt;/p&gt;&lt;p class=&quot;MsoNormal&quot;&gt;- Понимание&amp;nbsp;клиент-серверного взаимодействия&lt;/p&gt;&lt;p class=&quot;MsoNormal&quot;&gt;- Умение&amp;nbsp;прототипировать клиентские пути (например draw.io)&lt;/p&gt;&lt;p class=&quot;MsoNormal&quot;&gt;- Построение&amp;nbsp;сиквенс диаграмм в UML нотации&lt;/p&gt;&lt;p class=&quot;MsoNormal&quot;&gt;- Умение&amp;nbsp;работать с openAPI нотацией&lt;/p&gt;&lt;p class=&quot;MsoNormal&quot;&gt;- Понимание и&amp;nbsp;умение проектировать синхронное и асинхронное взаимодействия&lt;/p&gt;&lt;p class=&quot;MsoNormal&quot;&gt;- Опыт работы&amp;nbsp;с очередями (Rabbit, Kafka)&lt;/p&gt;&lt;p class=&quot;MsoNormal&quot;&gt;- Понимание&amp;nbsp;плюсов и минусов микросервисов и монолита&lt;/p&gt;&lt;p class=&quot;MsoNormal&quot;&gt;- Понимание&amp;nbsp;подхода API first&lt;/p&gt;&lt;p class=&quot;MsoNormal&quot;&gt;- Опыт работы&amp;nbsp;с Charles (перехват и анализ клиент-серверных запросов)&lt;/p&gt;&lt;p class=&quot;MsoNormal&quot;&gt;- Опыт работы&amp;nbsp;с БД: реляционными, нереляционными, векторными - понимание разницы между ними,&amp;nbsp;умение писать простые запросы&lt;/p&gt;&lt;p class=&quot;MsoNormal&quot;&gt;- Умение&amp;nbsp;программировать на python (junior уровень)&lt;/p&gt;&lt;p class=&quot;MsoNormal&quot;&gt;- Понимание&amp;nbsp;принципов работы LLM&lt;/p&gt;&lt;p class=&quot;MsoNormal&quot;&gt;- Умение&amp;nbsp;базового промтинга LLM&lt;/p&gt;&lt;p class=&quot;MsoNormal&quot;&gt;- Понимание&amp;nbsp;RAG&lt;/p&gt;&lt;p class=&quot;MsoNormal&quot;&gt;- Умение&amp;nbsp;построить (возможно с командой) и понимать архитектуру проекта, понимать, что&amp;nbsp;можно легко доработать, а что потребует серьезного изменения скоупа проекта&lt;/p&gt;&lt;p class=&quot;MsoNormal&quot;&gt;- Понимание&amp;nbsp;взаимодействия сервисов между собой (REST, очереди, service mesh)&lt;/p&gt;&lt;p class=&quot;MsoNormal&quot;&gt;-&amp;nbsp;Понимание принципов DevOps (docker, kubernetes)&lt;/p&gt;" style="shape=partialRectangle;html=1;whiteSpace=wrap;connectable=0;strokeColor=inherit;overflow=hidden;fillColor=none;top=0;left=0;bottom=0;right=0;pointerEvents=1;fontStyle=1;fontSize=12;fontFamily=Times New Roman;" vertex="1" parent="4yrnK2TZLZaJWwU7wquU-14">
          <mxGeometry x="870" width="310" height="760" as="geometry">
            <mxRectangle width="310" height="760" as="alternateBounds" />
          </mxGeometry>
        </mxCell>
        <mxCell id="4yrnK2TZLZaJWwU7wquU-21" value="&lt;span style=&quot;font-size: 30px;&quot;&gt;МАТРИЦА КОМПЕТЕНЦИЙ СИСТЕМНОГО АНАЛИТИКА&lt;/span&gt;" style="text;html=1;align=center;verticalAlign=middle;whiteSpace=wrap;rounded=0;fontStyle=5" vertex="1" parent="1">
          <mxGeometry x="120" y="120" width="1140" height="80" as="geometry" />
        </mxCell>
        <mxCell id="4yrnK2TZLZaJWwU7wquU-22" value="&lt;b&gt;&lt;span style=&quot;font-size:12.0pt;font-family:&amp;quot;Times New Roman&amp;quot;,serif;&amp;lt;br/&amp;gt;mso-fareast-font-family:&amp;quot;Times New Roman&amp;quot;;mso-font-kerning:0pt;mso-ligatures:&amp;lt;br/&amp;gt;none;mso-ansi-language:RU;mso-fareast-language:RU;mso-bidi-language:AR-SA&quot;&gt;Многозадачность&lt;/span&gt;&lt;/b&gt;&lt;span style=&quot;font-size:12.0pt;font-family:&amp;quot;Times New Roman&amp;quot;,serif;mso-fareast-font-family:&amp;lt;br/&amp;gt;&amp;quot;Times New Roman&amp;quot;;mso-font-kerning:0pt;mso-ligatures:none;mso-ansi-language:&amp;lt;br/&amp;gt;RU;mso-fareast-language:RU;mso-bidi-language:AR-SA&quot;&gt;&amp;nbsp;- в термин &quot;&lt;b&gt;многозадачность&lt;/b&gt;&quot;&amp;nbsp;вкладывается&amp;nbsp;&lt;b&gt;НЕ&lt;/b&gt;&amp;nbsp;возможность в каждый момент времени думать&amp;nbsp;сразу о нескольких задачах, а возможность переключаться между&amp;nbsp;задачами/проектами (от 2х - оптимально, до 5ти - максимально) без&amp;nbsp;&lt;b&gt;сильной&lt;/b&gt;&amp;nbsp;потери&amp;nbsp;эффективности (что какая-то потеря эффективности будет - факт).&amp;nbsp;&lt;/span&gt;" style="text;html=1;align=center;verticalAlign=middle;whiteSpace=wrap;rounded=0;" vertex="1" parent="1">
          <mxGeometry x="80" y="1500" width="1200" height="40" as="geometry" />
        </mxCell>
      </root>
    </mxGraphModel>
  </diagram>
</mxfile>
